<?xml version="1.0" encoding="UTF-8"?>
<svg width="31px" height="34px" viewBox="0 0 31 34" version="1.1" xmlns="http://www.w3.org/2000/svg" xmlns:xlink="http://www.w3.org/1999/xlink">
    <!-- Generator: sketchtool 51.3 (57544) - http://www.bohemiancoding.com/sketch -->
    <title>88E916EE-DAC3-4FB7-A676-FAB411D7071F</title>
    <desc>Created with sketchtool.</desc>
    <defs></defs>
    <g id="Page-1" stroke="none" stroke-width="1" fill="none" fill-rule="evenodd">
        <g id="dribbble_landing_h975" transform="translate(-1690.000000, -318.000000)">
            <g id="header">
                <g id="side-menu" transform="translate(1690.000000, 0.000000)">
                    <g id="basket-icon" transform="translate(0.000000, 318.000000)">
                        <path d="M15.133,-0.0001 C11.154,-0.0001 7.4,1.1459 4.563,3.2269 C1.621,5.3839 0,8.2869 0,11.3999 L0,17.9339 C0,18.3389 0.217,18.7139 0.57,18.9159 L7.487,21.8429 L15.133,24.3329 L22.748,21.9359 L29.696,18.9159 C30.049,18.7139 30.266,18.3389 30.266,17.9339 L30.266,11.3999 C30.266,8.2869 28.646,5.3839 25.703,3.2269 C22.865,1.1459 19.112,-0.0001 15.133,-0.0001 Z" id="Path" fill="#E694C0" fill-rule="nonzero"></path>
                        <path d="M28.003,17.2769 L23.732,19.7169 L23.732,16.0669 C23.732,15.4419 23.226,14.9349 22.601,14.9349 L7.666,14.9349 C7.041,14.9349 6.534,15.4419 6.534,16.0669 L6.534,19.7169 L2.263,17.2769 L2.263,11.3999 C2.263,6.3609 8.036,2.2629 15.133,2.2629 C22.23,2.2629 28.003,6.3609 28.003,11.3999 L28.003,17.2769 Z M17.663,30.0689 L19.602,29.0989 L19.602,31.0379 L17.663,30.0689 Z M10.664,31.0379 L10.664,29.0989 L12.603,30.0679 L10.664,31.0379 Z M8.797,18.6689 L21.469,18.6689 L21.469,17.1979 L8.797,17.1979 L8.797,18.6689 Z M15.133,25.7329 L18.204,27.2679 L15.133,28.8029 L12.063,27.2679 L15.133,25.7329 Z M9.97,23.1519 L12.603,24.4669 L10.511,25.5139 C10.396,24.7139 10.216,23.9249 9.97,23.1519 Z M15.133,23.2029 L10.591,20.9319 L19.674,20.9319 L15.133,23.2029 Z M19.755,25.5139 L17.663,24.4669 L20.295,23.1519 C20.05,23.9249 19.87,24.7139 19.755,25.5139 Z M25.703,3.2269 C22.865,1.1459 19.112,-0.0001 15.133,-0.0001 C11.154,-0.0001 7.4,1.1459 4.563,3.2269 C1.621,5.3839 0,8.2869 0,11.3999 L0,17.9339 C0,18.3389 0.217,18.7139 0.57,18.9159 L7.487,22.8429 L7.758,23.6569 C8.185,24.9359 8.401,26.2679 8.401,27.6159 L8.401,32.8689 C8.401,33.2609 8.604,33.6249 8.938,33.8309 C9.119,33.9439 9.326,33.9999 9.532,33.9999 C9.705,33.9999 9.878,33.9609 10.039,33.8809 L15.133,31.3329 L20.228,33.8809 C20.388,33.9609 20.561,33.9999 20.734,33.9999 C20.941,33.9999 21.147,33.9439 21.329,33.8309 C21.662,33.6249 21.865,33.2609 21.865,32.8689 L21.865,27.6159 C21.865,26.2679 22.082,24.9359 22.508,23.6569 L22.748,22.9359 L29.696,18.9159 C30.049,18.7139 30.266,18.3389 30.266,17.9339 L30.266,11.3999 C30.266,8.2869 28.646,5.3839 25.703,3.2269 Z" id="Fill-1" fill="#EC2D6D"></path>
                        <path d="M7.6651,11.2012 C7.3681,11.2012 7.0761,11.3222 6.8651,11.5332 C6.6551,11.7432 6.5341,12.0352 6.5341,12.3332 C6.5341,12.6302 6.6551,12.9222 6.8651,13.1332 C7.0761,13.3432 7.3681,13.4642 7.6651,13.4642 C7.9621,13.4642 8.2541,13.3432 8.4651,13.1332 C8.6761,12.9222 8.7961,12.6302 8.7961,12.3332 C8.7961,12.0352 8.6771,11.7432 8.4651,11.5332 C8.2541,11.3222 7.9621,11.2012 7.6651,11.2012" id="Fill-4" fill="#EC2D6D"></path>
                        <path d="M7.6651,7.4673 C7.3681,7.4673 7.0761,7.5883 6.8651,7.7993 C6.6551,8.0093 6.5341,8.3013 6.5341,8.5993 C6.5341,8.8963 6.6551,9.1883 6.8651,9.3993 C7.0761,9.6093 7.3681,9.7303 7.6651,9.7303 C7.9621,9.7303 8.2541,9.6093 8.4651,9.3993 C8.6761,9.1883 8.7961,8.8963 8.7961,8.5993 C8.7961,8.3013 8.6771,8.0093 8.4651,7.7993 C8.2541,7.5883 7.9621,7.4673 7.6651,7.4673" id="Fill-6" fill="#EC2D6D"></path>
                        <path d="M22.6002,7.4673 C22.3032,7.4673 22.0122,7.5883 21.8002,7.7993 C21.5892,8.0093 21.4692,8.3013 21.4692,8.5993 C21.4692,8.8973 21.5892,9.1883 21.8002,9.3993 C22.0112,9.6093 22.3032,9.7303 22.6002,9.7303 C22.8972,9.7303 23.1892,9.6093 23.4002,9.3993 C23.6112,9.1883 23.7312,8.8963 23.7312,8.5993 C23.7312,8.3013 23.6122,8.0093 23.4002,7.7993 C23.1892,7.5883 22.8982,7.4673 22.6002,7.4673" id="Fill-8" fill="#EC2D6D"></path>
                        <path d="M22.6002,11.2012 C22.3032,11.2012 22.0112,11.3222 21.8002,11.5332 C21.5892,11.7432 21.4692,12.0352 21.4692,12.3332 C21.4692,12.6302 21.5892,12.9222 21.8002,13.1332 C22.0112,13.3432 22.3032,13.4642 22.6002,13.4642 C22.8972,13.4642 23.1892,13.3432 23.4002,13.1332 C23.6112,12.9222 23.7312,12.6302 23.7312,12.3332 C23.7312,12.0352 23.6122,11.7432 23.4002,11.5332 C23.1892,11.3222 22.8992,11.2012 22.6002,11.2012" id="Fill-10" fill="#EC2D6D"></path>
                    </g>
                </g>
            </g>
        </g>
    </g>
</svg>