<?xml version="1.0" encoding="UTF-8"?>
<svg width="1920px" height="975px" viewBox="0 0 1920 975" version="1.1" xmlns="http://www.w3.org/2000/svg" xmlns:xlink="http://www.w3.org/1999/xlink">
    <!-- Generator: sketchtool 51.3 (57544) - http://www.bohemiancoding.com/sketch -->
    <title>619391B0-01B0-43BF-80CB-BC68B01A8F23</title>
    <desc>Created with sketchtool.</desc>
    <defs>
        <rect id="path-1" x="0" y="0" width="1920" height="975"></rect>
    </defs>
    <g id="Page-1" stroke="none" stroke-width="1" fill="none" fill-rule="evenodd">
        <g id="dribbble_landing_h975" transform="translate(0.000000, -2925.000000)">
            <g id="location" transform="translate(0.000000, 2925.000000)">
                <g id="bg">
                    <mask id="mask-2" fill="white">
                        <use xlink:href="#path-1"></use>
                    </mask>
                    <use id="Rectangle-4" fill="#1B509F" fill-rule="nonzero" xlink:href="#path-1"></use>
                    <g id="Group-97" mask="url(#mask-2)" stroke="#272125">
                        <g transform="translate(-432.000000, -41.000000)">
                            <path d="M0.4736,219.7339 C0.4736,219.7339 535.8426,527.3809 619.4736,548.7339 C744.0396,580.5379 1089.5856,535.9619 1212.4736,573.7339 C1368.3606,621.6479 1555.4736,686.7339 1693.4736,730.7339 C1723.6636,740.3599 1831.2326,808.5239 1860.4736,820.7339 C1914.8106,843.4229 2369.64062,940.375 2369.64062,941.375" id="Stroke-1" stroke-width="30"></path>
                            <path d="M17.4736,229.7339 C17.4736,229.7339 407.4736,547.7339 501.4736,568.7339 C733.4526,620.5589 1078.5856,545.9619 1201.4736,583.7339 C1357.3606,631.6479 1555.4736,686.7339 1693.4736,730.7339 C1723.6636,740.3599 1831.2326,808.5239 1860.4736,820.7339 C1914.8106,843.4229 2461.4736,953.7339 2461.4736,953.7339" id="Stroke-3" stroke-width="30"></path>
                            <path d="M138.4736,1364.7339 C138.4736,1364.7339 339.9256,733.8789 352.4736,693.7339 C364.3256,655.8169 374.5096,576.2849 387.4736,538.7339 C416.4736,454.7339 482.3386,368.9749 508.4736,309.7339 C541.6046,234.6339 619.4736,0.7339 619.4736,0.7339" id="Stroke-5" stroke-width="30"></path>
                            <path d="M184.4736,1375.7339 C184.4736,1375.7339 365.9256,827.8789 378.4736,787.7339 C390.3256,749.8169 468.5096,555.2849 481.4736,517.7339 C510.4736,433.7339 494.3386,339.9749 520.4736,280.7339 C553.6046,205.6339 619.4736,0.7339 619.4736,0.7339" id="Stroke-7" stroke-width="30"></path>
                            <path d="M1143.3281,561.7329 C1143.3281,561.7329 1201.3991,559.1729 1220.4741,541.7339 C1290.4741,477.7339 1277.1511,286.8249 1372.4741,244.7339 C1449.4741,210.7339 1592.4741,292.7339 1678.4741,361.7339 C1711.3901,388.1439 1738.7011,440.8539 1769.4741,469.7339 C1842.0371,537.8349 2067.4741,666.7339 2067.4741,666.7339 L1936.4741,1342.7339" id="Stroke-9" stroke-width="30"></path>
                            <polyline id="Stroke-11" stroke-width="15" points="0.9736 15.2339 754.4736 256.7339 870.4736 316.7339 933.4736 304.7339 1310.2246 316.7339"></polyline>
                            <path d="M869.9736,314.2339 L915.9736,1303.2339" id="Stroke-13" stroke-width="15"></path>
                            <path d="M1671.9736,356.2339 L1566.9736,689.2339" id="Stroke-15" stroke-width="15"></path>
                            <path d="M1284.9736,391.2339 L1612.9736,543.2339" id="Stroke-17" stroke-width="15"></path>
                            <path d="M1752.9736,452.2339 L1693.9736,730.2339" id="Stroke-19" stroke-width="15"></path>
                            <polyline id="Stroke-21" stroke-width="15" points="1947.9736 844.2339 2011.9736 405.2339 2159.9736 192.2339 2275.9736 153.2339"></polyline>
                            <path d="M1586.9736,298.2339 L2007.9736,431.2339" id="Stroke-23" stroke-width="15"></path>
                            <path d="M1849.9736,300.2339 L1815.9736,370.2339" id="Stroke-25" stroke-width="15"></path>
                            <path d="M1846.9736,442.2339 L1870.9396,450.2219 C1889.3836,456.3709 1909.3886,446.8389 1916.2346,428.6429 L1925.0536,405.2019" id="Stroke-27" stroke-width="15"></path>
                            <path d="M366.9736,819.2339 C366.9736,819.2339 493.4816,897.2659 542.9736,899.2339 C594.7886,901.2949 687.6986,842.9389 737.9736,830.2339 C833.1856,806.1719 1045.8656,777.5919 1142.9736,792.2339 C1217.6706,803.4969 1330.9146,887.0259 1403.9736,906.2339 C1556.9866,946.4629 2011.9736,953.2339 2011.9736,953.2339" id="Stroke-29" stroke-width="15"></path>
                            <path d="M619.9736,879.2339 L903.9736,1041.2339" id="Stroke-31" stroke-width="15"></path>
                            <polyline id="Stroke-33" stroke-width="15" points="530.9736 898.2339 799.9736 1132.2339 1157.9736 1104.7339 1157.9736 795.3049 1244.2026 596.7369"></polyline>
                            <path d="M1261.9736,677.2339 L1248.4976,731.1359 C1245.8386,741.7719 1250.7606,752.8529 1260.4336,758.0129 L1339.7066,800.2919 C1352.5216,807.1269 1368.4206,801.0409 1373.3966,787.3959 L1387.1776,749.6109 C1391.5436,737.6389 1385.7466,724.3489 1374.0026,719.4039 L1219.2336,654.2339" id="Stroke-35" stroke-width="15"></path>
                            <path d="M671.9736,458.2339 L876.9736,441.2339" id="Stroke-37" stroke-width="15"></path>
                            <path d="M716.9736,244.2339 L794.9736,447.2339" id="Stroke-39" stroke-width="15"></path>
                            <path d="M1745.9736,716.2339 L1964.9736,748.2339" id="Stroke-41" stroke-width="15"></path>
                            <path d="M1757.0918,763.1772 C1757.0918,763.1772 1693.9738,781.2342 1688.9738,824.2342 L1676.9738,939.2342" id="Stroke-43" stroke-width="15"></path>
                            <path d="M1605.4009,703.4897 L1595.5029,711.2827 C1581.6519,722.1877 1572.3799,737.8767 1569.5039,755.2677 L1540.9739,928.2337" id="Stroke-45" stroke-width="15"></path>
                            <path d="M1481.9736,666.2339 L1322.9736,1129.2339" id="Stroke-47" stroke-width="15"></path>
                            <polyline id="Stroke-49" stroke-width="15" points="1157.9736 1104.2339 1555.9736 1180.2339 1619.4736 935.0419"></polyline>
                            <path d="M1778.9736,945.2339 L1687.9736,1368.2339" id="Stroke-51" stroke-width="15"></path>
                            <path d="M633.9736,988.2339 L655.9736,1164.2339" id="Stroke-57" stroke-width="15"></path>
                            <path d="M794.9736,979.2339 L680.9736,1167.2339" id="Stroke-59" stroke-width="15"></path>
                            <path d="M2005.9736,153.2339 L2016.6146,190.4739 C2020.1346,202.7969 2026.5886,214.0829 2035.4246,223.3659 L2094.9146,285.8649" id="Stroke-87" stroke-width="15"></path>
                            <path d="M2011.4736,404.7339 L2490.4736,542.7339" id="Stroke-89" stroke-width="15"></path>
                            <polyline id="Stroke-93" stroke-width="15" points="2059.47266 654.867188 2087.99951 591.616907 2173.07813 531.695312 2506.9736 689.2336"></polyline>
                            <path d="M2078.9736,665.2339 L2462.9736,730.2339" id="Stroke-95" stroke-width="15"></path>
                        </g>
                    </g>
                </g>
            </g>
        </g>
    </g>
</svg>