<?xml version="1.0" encoding="UTF-8"?>
<svg width="269px" height="143px" viewBox="0 0 269 143" version="1.1" xmlns="http://www.w3.org/2000/svg" xmlns:xlink="http://www.w3.org/1999/xlink">
    <!-- Generator: sketchtool 51.3 (57544) - http://www.bohemiancoding.com/sketch -->
    <title>73DB5E47-8004-4396-8369-6BC66D284E9C</title>
    <desc>Created with sketchtool.</desc>
    <defs></defs>
    <g id="Page-1" stroke="none" stroke-width="1" fill="none" fill-rule="evenodd">
        <g id="dribbble_landing_h975" transform="translate(-379.000000, -3393.000000)" stroke="#FFFFFF" stroke-width="6">
            <g id="location" transform="translate(0.000000, 2925.000000)">
                <g id="bridge" transform="translate(514.000000, 538.500000) rotate(-2.000000) translate(-514.000000, -538.500000) translate(381.000000, 470.000000)">
                    <path d="M117,57 C117,80.1967074 97.9719774,99 74.5,99 C51.0271413,99 32,80.1967074 32,57 C32,33.8041635 51.0271413,15 74.5,15 C97.9719774,15 117,33.8041635 117,57 Z" id="Stroke-1"></path>
                    <path d="M87.7527158,137 C83.5345571,131.930259 81,125.431168 81,118.344945 C81,102.14737 94.239508,89.0168881 110.570705,89.0168881 C125.101468,89.0168881 266,88 266,88" id="Stroke-3"></path>
                    <path d="M98.9431818,23 L181,23" id="Stroke-5"></path>
                    <path d="M0,23 L50.0555556,23" id="Stroke-7"></path>
                    <path d="M19,90 L48.0625,90" id="Stroke-9"></path>
                    <path d="M94,18 L102,9" id="Stroke-11"></path>
                    <path d="M47,103 L55,94" id="Stroke-13"></path>
                    <path d="M50.2626941,107.249505 C48.7438602,109.879881 45.3804186,110.780932 42.7508346,109.262141 C40.1203841,107.74335 39.2193075,104.380004 40.737275,101.750495 C42.2561089,99.1201192 45.6195505,98.2190682 48.250001,99.737859 C50.879585,101.25665 51.7806616,104.619129 50.2626941,107.249505 Z" id="Stroke-15"></path>
                    <path d="M98.7373059,2.75049493 C100.25614,0.120119194 103.619581,-0.780931782 106.249165,0.73785895 C108.879616,2.25664968 109.780693,5.61999573 108.262725,8.24950507 C106.743891,10.8798808 103.38045,11.7809318 100.749999,10.262141 C98.120415,8.74335032 97.2193384,5.38087066 98.7373059,2.75049493 Z" id="Stroke-17"></path>
                </g>
            </g>
        </g>
    </g>
</svg>