<?xml version="1.0" encoding="UTF-8"?>
<svg width="23px" height="38px" viewBox="0 0 23 38" version="1.1" xmlns="http://www.w3.org/2000/svg" xmlns:xlink="http://www.w3.org/1999/xlink">
    <!-- Generator: sketchtool 51.3 (57544) - http://www.bohemiancoding.com/sketch -->
    <title>A549E959-A7A4-4326-9F1F-1B1CEA81D40C</title>
    <desc>Created with sketchtool.</desc>
    <defs></defs>
    <g id="Page-1" stroke="none" stroke-width="1" fill="none" fill-rule="evenodd">
        <g id="dribbble_landing_h975" transform="translate(-1694.000000, -3472.000000)">
            <g id="location" transform="translate(0.000000, 2925.000000)">
                <g id="side-menu" transform="translate(1694.000000, 0.000000)">
                    <g id="court" transform="translate(0.000000, 547.000000)">
                        <path d="M21.7566201,0 L1.24281806,0 C0.556795974,0 0,0.565773841 0,1.26470456 L0,36.7352954 C0,37.4336547 0.556234122,38 1.24281806,38 L21.7566201,38 C22.443204,38 23,37.4342262 23,36.7352954 L23,1.26470456 C23,0.565773841 22.443204,0 21.7566201,0 Z" id="Path" fill="#E694C0"></path>
                        <path d="M18.8917334,35.4705909 C18.7759918,31.4238792 15.5060094,28.1681079 11.5,28.1681079 C7.49399062,28.1681079 4.22400821,31.4238792 4.10826656,35.4705909 L2.48619797,35.4705909 L2.48619797,20.2644188 L6.30117745,20.2644188 C6.86359195,22.6543847 8.98009087,24.4374295 11.5,24.4374295 C14.0193473,24.4374295 16.1364081,22.6543847 16.6982607,20.2644188 L20.513802,20.2644188 L20.513802,35.4705909 L18.8917334,35.4705909 Z M13.551324,32.7205871 L9.44867598,32.7205871 C8.96773012,32.7205871 8.57836623,33.1166288 8.57836623,33.6052517 L8.57836623,35.4705909 L6.59446453,35.4705909 C6.70908247,32.8183117 8.86491108,30.6963741 11.5,30.6963741 C14.1345271,30.6963741 16.2909175,32.8183117 16.4049736,35.4705909 L14.4216338,35.4705909 L14.4216338,33.6052517 C14.4216338,33.1166288 14.0322699,32.7205871 13.551324,32.7205871 Z M10.3184239,35.4705909 L12.6804524,35.4705909 L12.6804524,34.4904877 L10.3184239,34.4904877 L10.3184239,35.4705909 Z M14.0744088,20.2644188 C13.6114423,21.2365211 12.6310094,21.9085919 11.5,21.9085919 C10.3684288,21.9085919 9.38855775,21.2365211 8.92502931,20.2644188 L14.0744088,20.2644188 Z M8.92502931,17.7350097 C9.38855775,16.7634789 10.3684288,16.0908366 11.5,16.0908366 C12.6310094,16.0908366 13.6114423,16.7629074 14.0744088,17.7350097 L8.92502931,17.7350097 Z M4.10826656,2.52883762 C4.22400821,6.57554931 7.49399062,9.83189208 11.5,9.83189208 C15.5060094,9.83189208 18.7759918,6.57554931 18.8917334,2.52883762 L20.513802,2.52883762 L20.513802,17.7350097 L16.6982607,17.7350097 C16.1364081,15.3450438 14.0193473,13.561999 11.5,13.561999 C8.98009087,13.561999 6.86359195,15.3450438 6.30117745,17.7350097 L2.48619797,17.7350097 L2.48619797,2.52883762 L4.10826656,2.52883762 Z M9.44867598,5.27941287 L13.551324,5.27941287 C14.0322699,5.27941287 14.4216338,4.88337118 14.4216338,4.39417683 L14.4216338,2.52883762 L16.4049736,2.52883762 C16.2909175,5.18111681 14.1345271,7.30248297 11.5,7.30248297 C8.86491108,7.30248297 6.70908247,5.18054532 6.59446453,2.52883762 L8.57836623,2.52883762 L8.57836623,4.39417683 C8.57836623,4.88279969 8.96773012,5.27941287 9.44867598,5.27941287 Z M10.3189857,3.50894079 L12.6815761,3.50894079 L12.6815761,2.52883762 L10.3189857,2.52883762 L10.3189857,3.50894079 Z M21.7566201,0 L1.24281806,0 C0.556795974,0 0,0.565773841 0,1.26470456 L0,36.7352954 C0,37.4336547 0.556234122,38 1.24281806,38 L21.7566201,38 C22.443204,38 23,37.4342262 23,36.7352954 L23,1.26470456 C23,0.565773841 22.443204,0 21.7566201,0 Z" id="Fill-1" fill="#EE2F6E"></path>
                    </g>
                </g>
            </g>
        </g>
    </g>
</svg>