<?xml version="1.0" encoding="UTF-8"?>
<svg width="134px" height="134px" viewBox="0 0 134 134" version="1.1" xmlns="http://www.w3.org/2000/svg" xmlns:xlink="http://www.w3.org/1999/xlink">
    <!-- Generator: sketchtool 51.3 (57544) - http://www.bohemiancoding.com/sketch -->
    <title>0F9E9A68-75B1-4473-8BE8-C4FDF68C185A</title>
    <desc>Created with sketchtool.</desc>
    <defs></defs>
    <g id="Page-1" stroke="none" stroke-width="1" fill="none" fill-rule="evenodd">
        <g id="dribbble_landing_h975" transform="translate(-700.000000, -1755.000000)" fill="#272125">
            <g id="schedule" transform="translate(0.000000, 975.000000)">
                <g id="pizza" transform="translate(700.000000, 780.000000)">
                    <path d="M111.795643,68.9234583 C105.59997,45.9480417 87.8235652,28.1263906 64.9078249,21.9149323 L70.2156171,11.2703073 C98.2296223,12.9645 120.721435,35.5159323 122.41262,63.6028906 L111.795643,68.9234583 Z M35.0174717,81.8555052 C38.0016691,83.0943073 41.2159288,83.75 44.5509626,83.75 C58.3682769,83.75 69.6107029,72.4796927 69.6107029,58.625 C69.6107029,49.6309479 64.7936639,41.4932396 57.3596223,37.0534427 L59.8189574,32.1244063 C80.3895236,36.9037396 96.8485522,53.4042344 101.615124,74.0297656 L18.021399,115.93338 L35.0174717,81.8555052 Z M58.4730405,58.625 C58.4730405,66.3223229 52.2282925,72.5833333 44.5509626,72.5833333 C42.9777678,72.5833333 41.4550405,72.3244063 40.017934,71.8267917 L52.3615964,47.0765729 C56.0951496,49.6135 58.4730405,53.9070833 58.4730405,58.625 Z M66.8262873,0 C64.7188327,0 62.7895808,1.19553125 61.8446197,3.08479167 L44.7970353,37.2743333 C44.7942509,37.277125 44.7942509,37.2827083 44.7900743,37.285151 L27.6718353,71.6086927 C27.6690509,71.6114844 27.6690509,71.6184635 27.6662665,71.6209063 L0.587476883,125.918125 C-0.483827013,128.0705 -0.0637283117,130.664656 1.63163273,132.364432 C2.70189247,133.435734 4.12403273,134 5.56914442,134 C6.41595481,134 7.26868208,133.807724 8.05841195,133.411307 L130.572698,71.9946406 C132.461228,71.0486146 133.652261,69.1143385 133.652261,67 C133.652261,30.0554323 103.676287,0 66.8262873,0 Z" id="Fill-1"></path>
                    <path d="M90.3592519,63.6396775 C88.1757882,61.4534408 84.6247719,61.4534408 82.439908,63.6396775 L79.639698,66.4398525 C77.453434,68.6274892 77.453434,72.1728608 79.639698,74.3590974 C80.7321299,75.4543159 82.1665375,76 83.599545,76 C85.0336025,76 86.46661,75.4543159 87.5590419,74.3590974 L90.3592519,71.5589224 C92.546916,69.3726858 92.546916,65.8273142 90.3592519,63.6396775" id="Fill-4"></path>
                </g>
            </g>
        </g>
    </g>
</svg>