<?xml version="1.0" encoding="UTF-8"?>
<svg width="146px" height="150px" viewBox="0 0 146 150" version="1.1" xmlns="http://www.w3.org/2000/svg" xmlns:xlink="http://www.w3.org/1999/xlink">
    <!-- Generator: sketchtool 51.3 (57544) - http://www.bohemiancoding.com/sketch -->
    <title>4C938AF2-617E-49F7-88A8-D4E23B99B60F</title>
    <desc>Created with sketchtool.</desc>
    <defs></defs>
    <g id="Page-1" stroke="none" stroke-width="1" fill="none" fill-rule="evenodd">
        <g id="dribbble_landing_h975" transform="translate(-310.000000, -1275.000000)" fill="#272125">
            <g id="schedule" transform="translate(0.000000, 975.000000)">
                <g id="player" transform="translate(310.000000, 300.000000)">
                    <path d="M73.0005033,134.083838 L54.5236631,124.812626 L58.0534617,123.926768 C60.3417415,123.35303 61.9471104,121.289394 61.9471104,118.921717 L61.9471104,114.641414 C65.4945228,115.497475 69.1949234,115.954545 73,115.954545 C76.8050766,115.954545 80.5059804,115.497475 84.0528896,114.641414 L84.0528896,118.921717 C84.0528896,121.289394 85.6582585,123.35303 87.9465383,123.926768 L91.4763369,124.812626 L73.0005033,134.083838 Z M36.0372612,68.5414141 L36.0372612,53.2439394 L109.963745,53.2439394 L109.963745,68.5414141 C109.963745,88.9959596 93.3821463,105.636364 73.0005033,105.636364 C52.6188602,105.636364 36.0372612,88.9959596 36.0372612,68.5414141 Z M20.5139979,65.1267677 C20.5139979,63.8631313 20.5170174,60.8469697 25.7553513,59.9035354 L25.7553513,68.5414141 C25.7553513,71.2469697 25.98584,73.8984848 26.4216549,76.4813131 C23.1470043,74.3590909 20.5139979,69.2075758 20.5139979,65.1267677 Z M69.8219734,10.3186869 L76.1790331,10.3186869 C86.7181039,10.3186869 96.140462,15.1909091 102.340508,22.8040404 L43.660499,22.8040404 C49.8605445,15.190404 59.2829026,10.3186869 69.8219734,10.3186869 Z M119.579352,76.4813131 C120.015166,73.8984848 120.245655,71.2469697 120.245655,68.5414141 L120.245655,59.9035354 C125.483989,60.8469697 125.487009,63.8631313 125.487009,65.1267677 C125.487009,69.2075758 122.854002,74.3590909 119.579352,76.4813131 Z M31.3590451,42.9252525 L114.641961,42.9252525 L114.641961,33.1227273 L31.3590451,33.1227273 L31.3590451,42.9252525 Z M29.8170857,87.7858586 C34.2431734,97.7606061 42.0012823,105.908586 51.6657038,110.838384 L51.6657038,114.893939 C51.6657038,114.893939 21.7635688,123.187879 12.0307052,126.673737 C4.5649848,129.347475 0,136.885859 0,144.840909 C0,147.689394 2.30186754,150 5.14070331,150 C7.97953908,150 10.2814066,147.689394 10.2814066,144.840909 C10.2814066,141.051515 12.5309361,137.65404 16.0124227,136.186869 L19.2780148,134.810101 L19.2780148,144.219697 C19.2780148,147.069192 21.5798824,149.379293 24.4187182,149.379293 C27.2575539,149.379293 29.5594215,147.069192 29.5594215,144.219697 L29.5594215,131.075758 L39.1961643,128.658081 L70.701152,144.466667 C71.4248261,144.829293 72.2124131,145.011111 73,145.011111 C73.7875869,145.011111 74.5751739,144.829293 75.298848,144.466667 L106.803836,128.658081 L116.440579,131.075758 L116.440579,144.219192 C116.440579,147.068687 118.742446,149.378283 121.581282,149.378283 C124.420118,149.378283 126.721985,147.068687 126.721985,144.219192 L126.721985,134.809596 L129.987074,136.186364 C133.468561,137.653535 135.718593,141.05101 135.718593,144.840404 C135.718593,147.688889 138.020461,149.999495 140.859297,149.999495 C143.698132,149.999495 146,147.688889 146,144.840404 C146,136.885354 141.434512,129.34697 133.968792,126.672727 C124.235928,123.187374 94.3342962,114.893434 94.3342962,114.893434 L94.3342962,110.837879 C103.998718,105.908081 111.75733,97.760101 116.182914,87.7853535 C126.982166,87.7853535 135.767409,75.6045455 135.767409,65.1262626 C135.767409,57.7419192 132.087641,52.4752525 124.922362,50.3454545 L124.922362,27.9636364 C124.922362,25.1146465 122.620494,22.8045455 119.781658,22.8045455 L114.698829,22.8045455 C107.172718,9.21969697 92.7354695,0 76.1790331,0 L69.8219734,0 C53.265537,0 38.8282882,9.21969697 31.3011713,22.8040404 L26.2183418,22.8040404 C23.379506,22.8040404 21.0776384,25.1141414 21.0776384,27.9631313 L21.0776384,50.3454545 C13.9123586,52.4747475 10.2325913,57.7414141 10.2325913,65.1262626 C10.2320881,75.6050505 19.0173311,87.7858586 29.8170857,87.7858586 Z" id="Fill-1"></path>
                </g>
            </g>
        </g>
    </g>
</svg>