<?xml version="1.0" encoding="UTF-8"?>
<svg width="27px" height="32px" viewBox="0 0 27 32" version="1.1" xmlns="http://www.w3.org/2000/svg" xmlns:xlink="http://www.w3.org/1999/xlink">
    <!-- Generator: sketchtool 51.3 (57544) - http://www.bohemiancoding.com/sketch -->
    <title>403FCE34-340E-46A6-ABDD-E16178B6D0F2</title>
    <desc>Created with sketchtool.</desc>
    <defs></defs>
    <g id="Page-1" stroke="none" stroke-width="1" fill="none" fill-rule="evenodd">
        <g id="dribbble_landing_h975" transform="translate(-1692.000000, -2422.000000)">
            <g id="speaker" transform="translate(0.000000, 1950.000000)">
                <g id="side-menu" transform="translate(1692.000000, 0.000000)">
                    <g id="t-shirt" transform="translate(0.000000, 472.000000)">
                        <path d="M5.5275775,2.17556902 L7.02368859,2.17556902 C7.51379763,5.4363367 10.1827609,7.85648485 13.5000533,7.85648485 C16.8173456,7.85648485 19.4862023,5.4363367 19.9764179,2.17556902 L21.472529,2.17556902 L21.472529,7.32810774 C21.472529,9.7763771 22.7766452,12.0119596 24.8486344,13.2072727 L24.8486344,25.8989899 L2.1514721,25.8989899 L2.1514721,13.2072727 C4.22356785,12.0118519 5.5275775,9.7763771 5.5275775,7.32810774 L5.5275775,2.17556902 Z" id="Path" fill="#E694C0" fill-rule="nonzero"></path>
                        <path d="M2.1514721,29.8243232 L24.848741,29.8243232 L24.848741,28.0745589 L2.1514721,28.0745589 L2.1514721,29.8243232 Z M5.5275775,7.32810774 L5.5275775,2.17556902 L7.02368859,2.17556902 C7.51379763,5.4363367 10.1827609,7.85648485 13.5000533,7.85648485 C16.8173456,7.85648485 19.4862023,5.4363367 19.9764179,2.17556902 L21.472529,2.17556902 L21.472529,7.32810774 C21.472529,9.7763771 22.7766452,12.0119596 24.8486344,13.2072727 L24.8486344,25.8989899 L2.1514721,25.8989899 L2.1514721,13.2072727 C4.22356785,12.0118519 5.5275775,9.7763771 5.5275775,7.32810774 Z M26.354015,11.5402559 C24.6955286,10.8095354 23.6238946,9.15609428 23.6238946,7.32810774 L23.6238946,1.08778451 C23.6238946,0.487111111 23.1422026,0 22.5482118,0 L18.98139,0 C18.3872927,0 17.9057073,0.487111111 17.9057073,1.08778451 C17.9057073,3.66329966 15.970629,5.68091582 13.5000533,5.68091582 C11.0295841,5.68091582 9.09439925,3.66340741 9.09439925,1.08778451 C9.09439925,0.487111111 8.61281385,0 8.01871647,0 L4.45189473,0 C3.85779735,0 3.37621195,0.487111111 3.37621195,1.08778451 L3.37621195,7.32810774 C3.37621195,9.15609428 2.3045779,10.8095354 0.646091557,11.5402559 C0.253684696,11.7131852 0,12.1047273 0,12.5375354 L0,30.9122155 C0,31.5129966 0.481691941,32 1.07568278,32 L25.9243172,32 C26.5184146,32 27,31.5128889 27,30.9122155 L27,12.5375354 C27.0001065,12.1047273 26.7463153,11.7131852 26.354015,11.5402559 Z" id="Fill-1" fill="#EE2F6E"></path>
                        <path d="M16.4201955,19.8308061 C16.5810072,19.9452314 16.762843,20 16.9426231,20 C17.2475204,20 17.5467179,19.8425778 17.7283668,19.5514765 L20.8415342,14.565842 C21.0345829,14.256684 21.0525235,13.8594374 20.888348,13.5319234 C20.724266,13.2045092 20.404605,13 20.0566314,13 L16.9435575,13 C16.4224381,13 16.0000857,13.4510176 16.0000857,14.0071828 C16.0000857,14.5634477 16.4225316,15.0143655 16.9435575,15.0143655 L18.2938706,15.0143655 L16.1585613,18.434158 C15.8695489,18.8968476 15.9866302,19.5221468 16.4201955,19.8308061" id="Fill-3" fill="#EE2F6E"></path>
                    </g>
                </g>
            </g>
        </g>
    </g>
</svg>