<?xml version="1.0" encoding="UTF-8"?>
<svg width="109px" height="60px" viewBox="0 0 109 60" version="1.1" xmlns="http://www.w3.org/2000/svg" xmlns:xlink="http://www.w3.org/1999/xlink">
    <!-- Generator: sketchtool 51.3 (57544) - http://www.bohemiancoding.com/sketch -->
    <title>0376AC90-56F0-4421-9425-78E039E41E6E</title>
    <desc>Created with sketchtool.</desc>
    <defs></defs>
    <g id="Page-1" stroke="none" stroke-width="1" fill="none" fill-rule="evenodd">
        <g id="dribbble_landing_h975" transform="translate(-983.000000, -3019.000000)" stroke="#FFFFFF" stroke-width="5">
            <g id="location" transform="translate(0.000000, 2925.000000)">
                <g id="train" transform="translate(983.000000, 97.000000)">
                    <path d="M50.8462832,10.3116682 L50.8462832,1.09226516 C50.8462832,0.488565206 50.3424632,0 49.721657,0 L27.1246262,0 C26.50382,0 26,0.488565206 26,1.09226516 L26,10.3116682 L50.8462832,10.3116682 Z" id="Stroke-1"></path>
                    <path d="M98.7772972,30.0289011 L80.5329283,12.3087546 C79.1017986,10.8854771 77.1044563,10 74.8941994,10 L10.6282872,10 C9.17610004,10 8,11.1430153 8,12.5526585 L8,40.6281149 C8,42.0377581 9.17610004,43.1807734 10.6282872,43.1807734 L93.2898702,43.1807734 C97.644092,43.1807734 101.173952,39.7532423 101.173952,35.5243128 C101.173952,33.3670512 100.255221,31.4203651 98.7772972,30.0289011 Z" id="Stroke-3"></path>
                    <path d="M20.1246262,30.563613 L36.5377729,30.563613 C37.1585791,30.563613 37.6623991,30.0742903 37.6623991,29.4713478 L37.6623991,20 L19,20 L19,29.4713478 C19,30.0742903 19.5030401,30.563613 20.1246262,30.563613 Z" id="Stroke-5"></path>
                    <path d="M51.1246262,30.563613 L67.536993,30.563613 C68.1585791,30.563613 68.6623991,30.0742903 68.6623991,29.4713478 L68.6623991,20 L50,20 L50,29.4713478 C50,30.0742903 50.5030401,30.563613 51.1246262,30.563613 Z" id="Stroke-7"></path>
                    <path d="M87.0400632,19 L82.1063703,19 C80.3905745,19 79,20.3505609 79,22.0162274 C79,23.0744066 79.5615332,24.0038167 80.4108521,24.5423746 L86.8950005,30.1241374 C87.6827067,30.714203 88.6685094,31.0664244 89.739322,31.0664244 L99.4632048,31.0656669" id="Stroke-9"></path>
                    <path d="M108.183266,54 L0,54" id="Stroke-11"></path>
                </g>
            </g>
        </g>
    </g>
</svg>