<?xml version="1.0" encoding="UTF-8"?>
<svg width="29px" height="34px" viewBox="0 0 29 34" version="1.1" xmlns="http://www.w3.org/2000/svg" xmlns:xlink="http://www.w3.org/1999/xlink">
    <!-- Generator: sketchtool 51.3 (57544) - http://www.bohemiancoding.com/sketch -->
    <title>036AD1E5-6D45-44DE-BCA6-6B1F501AE6E0</title>
    <desc>Created with sketchtool.</desc>
    <defs></defs>
    <g id="Page-1" stroke="none" stroke-width="1" fill="none" fill-rule="evenodd">
        <g id="dribbble_landing_h975" transform="translate(-1691.000000, -1369.000000)">
            <g id="schedule" transform="translate(0.000000, 975.000000)">
                <g id="side-menu" transform="translate(1691.000000, 0.000000)">
                    <g id="watches-icon" transform="translate(0.000000, 394.000000)">
                        <path d="M26.142,11.933 L28.13,9.945 C28.584,9.491 28.584,8.755 28.13,8.301 L25.532,5.703 C25.078,5.249 24.342,5.249 23.888,5.703 L21.865,7.726 C20.262,6.707 18.443,5.999 16.493,5.689 C18.07,5.212 19.081,4.225 19.081,3 C19.081,1.262 17.047,0 14.244,0 C11.442,0 9.408,1.262 9.408,3 C9.408,4.225 10.419,5.212 11.996,5.689 C10.046,5.999 8.227,6.707 6.624,7.726 L4.601,5.703 C4.147,5.249 3.411,5.249 2.957,5.703 L0.359,8.301 C-0.095,8.755 -0.095,9.491 0.359,9.945 L2.347,11.933 C0.864,14.18 0,16.868 0,19.755 C0,27.61 6.39,34 14.244,34 C22.099,34 28.489,27.61 28.489,19.755 C28.489,16.868 27.625,14.18 26.142,11.933 Z" id="Path" fill="#E694C0" fill-rule="nonzero"></path>
                        <path d="M2.826,9.123 L3.779,8.17 L4.753,9.144 C4.418,9.444 4.097,9.759 3.792,10.089 L2.826,9.123 Z M14.244,2.326 C15.626,2.326 16.479,2.754 16.714,3 C16.479,3.245 15.626,3.674 14.244,3.674 C12.863,3.674 12.01,3.245 11.775,3 C12.01,2.754 12.863,2.326 14.244,2.326 Z M24.71,8.17 L25.663,9.123 L24.697,10.089 C24.391,9.759 24.071,9.444 23.736,9.144 L24.71,8.17 Z M14.244,19.081 C14.617,19.081 14.919,19.384 14.919,19.755 C14.919,20.127 14.616,20.43 14.244,20.43 C13.873,20.43 13.57,20.127 13.57,19.755 C13.57,19.384 13.873,19.081 14.244,19.081 Z M14.244,27.778 C13.602,27.778 13.082,28.298 13.082,28.94 L13.082,31.618 C10.666,31.383 8.46,30.424 6.683,28.962 L7.719,27.926 C8.173,27.472 8.173,26.735 7.719,26.281 C7.265,25.828 6.529,25.827 6.075,26.281 L5.038,27.317 C3.576,25.54 2.618,23.333 2.383,20.918 L5.059,20.918 C5.701,20.918 6.222,20.398 6.222,19.755 C6.222,19.113 5.702,18.593 5.059,18.593 L2.383,18.593 C2.618,16.177 3.576,13.971 5.038,12.194 L6.074,13.229 C6.301,13.456 6.599,13.57 6.896,13.57 C7.194,13.57 7.492,13.456 7.719,13.229 C8.173,12.775 8.173,12.039 7.719,11.585 L6.683,10.549 C8.46,9.087 10.666,8.128 13.082,7.894 L13.082,16.99 C12.004,17.445 11.245,18.514 11.245,19.755 C11.245,21.41 12.591,22.755 14.244,22.755 C14.645,22.755 15.028,22.676 15.377,22.533 L21.806,28.962 C20.029,30.424 17.823,31.382 15.407,31.618 L15.407,28.94 C15.408,28.298 14.887,27.778 14.244,27.778 Z M23.43,20.918 L26.106,20.918 C25.871,23.333 24.913,25.54 23.451,27.317 L17.022,20.888 C17.165,20.539 17.244,20.156 17.244,19.755 C17.244,18.514 16.486,17.445 15.407,16.99 L15.407,7.894 C17.823,8.128 20.029,9.087 21.806,10.549 L20.77,11.585 C20.316,12.04 20.316,12.776 20.77,13.23 C20.997,13.457 21.295,13.57 21.593,13.57 C21.89,13.57 22.188,13.457 22.415,13.23 L23.451,12.194 C24.913,13.971 25.871,16.177 26.106,18.593 L23.43,18.593 C22.787,18.593 22.266,19.113 22.266,19.755 C22.267,20.398 22.787,20.918 23.43,20.918 Z M26.142,11.933 L28.13,9.945 C28.584,9.491 28.584,8.755 28.13,8.301 L25.532,5.703 C25.078,5.249 24.342,5.249 23.888,5.703 L21.865,7.726 C20.262,6.707 18.443,5.999 16.493,5.689 C18.07,5.212 19.081,4.225 19.081,3 C19.081,1.262 17.047,0 14.244,0 C11.442,0 9.408,1.262 9.408,3 C9.408,4.225 10.419,5.212 11.996,5.689 C10.046,5.999 8.227,6.707 6.624,7.726 L4.601,5.703 C4.147,5.249 3.411,5.249 2.957,5.703 L0.359,8.301 C-0.095,8.755 -0.095,9.491 0.359,9.945 L2.347,11.933 C0.864,14.18 0,16.868 0,19.755 C0,27.61 6.39,34 14.244,34 C22.099,34 28.489,27.61 28.489,19.755 C28.489,16.868 27.625,14.18 26.142,11.933 Z" id="Fill-1" fill="#EE2F6E"></path>
                    </g>
                </g>
            </g>
        </g>
    </g>
</svg>